<?xml version="1.0" encoding="UTF-8"?>
<!DOCTYPE svg PUBLIC "-//W3C//DTD SVG 1.1//EN" "http://www.w3.org/Graphics/SVG/1.1/DTD/svg11.dtd">
<!-- Creator: CorelDRAW X5 -->
<svg xmlns="http://www.w3.org/2000/svg" xml:space="preserve" width="84.6666mm" height="42.3332mm" style="shape-rendering:geometricPrecision; text-rendering:geometricPrecision; image-rendering:optimizeQuality; fill-rule:evenodd; clip-rule:evenodd"
viewBox="0 0 8467 4233"
 xmlns:xlink="http://www.w3.org/1999/xlink">
 <defs>
  <style type="text/css">
   <![CDATA[
    .str1 {stroke:#DF744A;stroke-width:70.56;stroke-linecap:round}
    .str0 {stroke:#DF744A;stroke-width:141.11;stroke-linecap:round}
    .fil1 {fill:none}
    .fil0 {fill:#DF744A}
    .fil2 {fill:#DF744A;fill-rule:nonzero}
   ]]>
  </style>
 </defs>
 <g id="Warstwa_x0020_1">
  <metadata id="CorelCorpID_0Corel-Layer"/>
  <ellipse class="fil0 str0" transform="matrix(0.372451 -0.293826 0.293826 0.372451 4648.48 3700.76)" rx="335" ry="333"/>
  <path class="fil1 str1" d="M2441 3618c714,-607 1429,-607 2143,0"/>
  <path class="fil1 str1" d="M4647 3632c714,-607 1429,-607 2143,0"/>
  <line class="fil1 str1" x1="2185" y1="3832" x2="4456" y2="3832" />
  <line class="fil1 str1" x1="4635" y1="3832" x2="7005" y2="3832" />
  <line class="fil1 str1" x1="6818" y1="3646" x2="6818" y2="3267" />
  <line class="fil1 str1" x1="2441" y1="3580" x2="2441" y2="3201" />
  <g id="_353187896">
   <path class="fil1 str1" d="M2431 897c714,-607 1429,-607 2143,0"/>
   <path class="fil1 str1" d="M4620 910c714,-607 1429,-607 2143,0"/>
   <path class="fil1 str1" d="M2436 887c714,-607 1429,-607 2143,0"/>
   <line class="fil1 str1" x1="6763" y1="1290" x2="6763" y2="911" />
   <line class="fil1 str1" x1="2427" y1="1308" x2="2427" y2="929" />
  </g>
  <path class="fil2" d="M714 1705c108,5 193,64 253,177 60,113 91,250 92,410 -1,107 -15,208 -42,303 -27,96 -58,183 -95,264l-44 26c34,-85 58,-170 71,-255 13,-85 19,-164 19,-237 -2,-168 -32,-309 -88,-422 -56,-113 -126,-172 -210,-177 -46,0 -86,17 -121,52 -35,35 -64,87 -86,158l-21 -37c27,-85 63,-149 110,-195 46,-45 100,-68 161,-69zm394 634c1,-104 -12,-212 -41,-323 -28,-111 -76,-212 -144,-301l66 -28c47,87 84,182 110,284 26,102 40,216 40,342 -1,81 -9,165 -25,249 -16,85 -37,163 -61,236l3 2c55,-55 120,-138 196,-250 76,-112 133,-248 171,-406 -30,-89 -67,-166 -109,-230 -42,-64 -84,-114 -126,-149l93 -77c109,121 181,247 217,379 36,132 53,250 51,355 -1,69 -7,145 -19,228 -12,83 -27,154 -45,213l-44 28c20,-62 34,-124 41,-186 7,-62 10,-121 10,-176 -1,-58 -4,-109 -10,-154 -6,-45 -13,-85 -21,-122l-3 0c-57,124 -128,241 -211,353 -84,112 -153,197 -209,255l-47 27c31,-66 58,-146 81,-239 23,-93 35,-196 36,-308zm442 547c19,-55 34,-120 45,-195 11,-75 17,-150 18,-227 -2,-164 -24,-311 -68,-440 -43,-128 -100,-231 -168,-307l60 -31c76,122 129,249 158,380 29,132 43,259 41,382 0,66 -3,125 -8,175 -6,50 -14,100 -24,151l3 3c111,-143 198,-279 263,-410 65,-130 98,-261 100,-392 0,-60 -6,-111 -19,-151 -12,-40 -32,-74 -58,-99l108 -77c16,29 28,62 37,99 9,37 14,78 14,124 -1,96 -16,187 -45,274 -29,87 -66,170 -111,248 -45,78 -92,153 -143,222 -51,70 -98,135 -141,197 -4,6 -8,13 -12,21 -4,8 -9,17 -13,24l-37 27zm887 -1284c25,1 43,8 56,22 12,14 19,33 19,56 -1,25 -8,45 -21,61 -14,16 -32,25 -55,25 -23,-1 -42,-8 -56,-22 -14,-14 -20,-33 -20,-57 1,-27 8,-48 23,-63 15,-15 33,-23 54,-23zm-32 461c-36,120 -66,221 -90,303 -24,82 -44,149 -59,201 -15,52 -25,93 -32,122 -6,29 -8,50 -7,63 0,17 3,30 8,40 5,10 14,15 28,15 50,-6 113,-51 189,-137 76,-86 148,-181 216,-285l-13 46c-62,99 -137,197 -223,295 -86,98 -165,152 -236,160 -28,-2 -49,-12 -63,-31 -14,-18 -21,-40 -21,-66 0,-22 7,-60 22,-114 14,-54 32,-113 52,-179 20,-66 38,-127 53,-186 16,-59 24,-102 25,-130 0,-30 -9,-49 -28,-58 -19,-9 -49,-13 -90,-12l7 -25 264 -23zm541 0c36,1 66,8 90,22 23,14 44,32 61,51l-52 98c-5,-40 -18,-74 -38,-102 -20,-28 -47,-42 -81,-44 -25,1 -45,10 -60,27 -14,17 -22,40 -23,66 0,29 7,62 22,98 14,36 32,74 52,115 20,40 37,81 52,123 14,41 22,81 23,120 -1,35 -8,65 -21,91 -14,26 -31,48 -52,67 3,1 7,2 11,3 4,1 9,1 14,1 62,-6 134,-55 215,-145 81,-90 154,-183 216,-280 -3,12 -6,21 -7,26 -1,6 -3,10 -5,14 -50,84 -118,175 -205,271 -86,96 -173,149 -261,157l-32 -2c-22,13 -45,23 -69,31 -24,8 -48,12 -73,13 -69,-1 -128,-25 -174,-70 -47,-46 -71,-108 -74,-188 1,-60 15,-111 43,-153 28,-42 71,-77 127,-104l89 59c-60,9 -106,34 -138,76 -32,42 -49,90 -50,144 2,64 21,115 58,153 36,38 82,57 135,58 42,0 77,-14 106,-42 29,-28 44,-70 45,-126 -2,-44 -9,-86 -23,-124 -14,-39 -29,-76 -45,-112 -17,-36 -32,-71 -45,-106 -13,-34 -19,-68 -19,-101 1,-55 19,-99 53,-133 34,-34 79,-52 133,-53zm909 0c34,1 60,12 78,33 18,21 28,49 29,83 -1,24 -9,61 -24,112 -14,51 -31,108 -51,168 -19,61 -36,118 -50,173 -14,55 -21,97 -21,129 0,14 3,26 10,34 7,8 15,13 25,13 57,-10 127,-64 210,-164 83,-100 150,-189 198,-268l-14 47c-52,86 -124,183 -216,289 -91,106 -174,165 -248,175 -25,-1 -45,-10 -60,-25 -15,-15 -22,-35 -23,-59 0,-27 8,-69 23,-127 15,-57 32,-119 53,-184 20,-65 38,-125 53,-178 16,-53 24,-90 25,-110 -1,-20 -6,-36 -18,-48 -11,-13 -25,-19 -43,-20 -49,-3 -112,51 -189,163 -77,112 -163,299 -258,562l-146 26 240 -832c-46,-5 -80,-17 -102,-37 -22,-20 -38,-50 -48,-92l64 -55c-1,32 6,60 21,85 14,24 40,41 78,50 41,-142 95,-258 163,-347 67,-89 151,-134 249,-137 52,1 89,15 111,42 22,27 33,58 33,95 -6,92 -59,177 -156,255 -97,78 -203,127 -315,149l-228 792 22 0c92,-270 181,-469 268,-599 87,-129 172,-193 257,-192zm-304 -46c76,-1 157,-32 243,-93 86,-61 133,-144 140,-250 -1,-38 -11,-69 -31,-92 -20,-23 -46,-34 -77,-35 -37,0 -71,16 -100,48 -29,32 -54,73 -76,123 -22,50 -41,101 -57,154 -16,53 -30,101 -42,145zm838 -214c67,-33 144,-56 233,-70 88,-13 162,-20 220,-20 -26,66 -53,140 -82,221 -29,81 -58,167 -87,260 -29,92 -54,188 -77,289 -22,100 -39,204 -51,311 16,14 33,27 48,36 16,10 35,20 58,29l-241 16c18,-129 58,-300 121,-514 62,-214 130,-414 204,-600 -4,0 -10,-1 -19,-2 -9,-1 -21,-2 -37,-2 -122,1 -221,27 -298,76 -77,50 -116,117 -119,202 0,10 1,22 5,35 3,13 7,29 13,49l-100 35c2,-68 19,-133 49,-195 31,-62 83,-115 157,-157zm532 8c38,-41 77,-72 119,-93 42,-21 84,-32 124,-32 57,2 100,21 129,58 29,37 43,81 43,131 -1,87 -37,161 -110,222 -73,61 -178,107 -316,139l0 2c81,15 156,48 226,98 70,50 107,124 111,223 -2,87 -37,162 -104,225 -67,64 -155,97 -263,101 -83,-1 -144,-23 -182,-68 -38,-45 -57,-111 -57,-198 -1,-93 22,-222 67,-389 45,-167 115,-307 210,-420zm-97 406c119,-4 216,-39 290,-107 74,-68 112,-146 115,-235 0,-38 -10,-69 -29,-95 -19,-26 -49,-39 -89,-40 -84,6 -158,59 -222,158 -65,99 -112,204 -141,314 9,0 21,1 36,2 14,2 28,3 42,3zm-44 26c-7,0 -15,0 -23,1 -8,1 -15,2 -20,3 -13,45 -26,103 -40,174 -14,71 -21,138 -22,201 0,77 17,136 52,177 34,41 87,61 157,61 78,-2 139,-30 182,-83 44,-54 66,-123 67,-206 -8,-130 -54,-218 -137,-263 -83,-45 -155,-66 -215,-63zm1151 -180c57,1 99,19 125,54 26,35 39,79 38,132 -5,111 -41,219 -110,323 -68,104 -137,184 -205,239 7,5 17,8 29,11 12,2 24,4 35,4 85,-4 171,-48 258,-133 87,-85 170,-191 249,-318l-14 47c-53,90 -125,183 -215,281 -90,97 -185,150 -283,157 -21,0 -40,-2 -56,-7 -17,-5 -30,-10 -41,-17 -23,12 -46,23 -71,33 -25,10 -55,15 -90,17 -54,-1 -94,-19 -121,-54 -26,-35 -39,-83 -39,-145 5,-129 58,-262 158,-400 101,-138 218,-213 354,-225zm-184 733c61,-57 114,-130 159,-221 45,-90 68,-182 71,-275 0,-47 -8,-87 -26,-121 -17,-34 -44,-51 -81,-53 -62,6 -114,54 -157,143 -43,90 -66,183 -67,282 0,50 8,97 25,140 16,43 42,78 77,106zm59 -663l-5 -13c-83,51 -150,129 -202,233 -51,104 -78,205 -79,301 1,59 12,103 36,130 23,28 56,41 99,40l51 -7 3 -3c-32,-29 -55,-62 -68,-99 -13,-37 -19,-81 -19,-132 -1,-78 12,-158 40,-240 27,-82 76,-152 145,-211zm909 -70c57,1 99,19 125,54 26,35 39,79 38,132 -5,111 -41,219 -110,323 -68,104 -137,184 -205,239 7,5 17,8 29,11 12,2 24,4 35,4 85,-4 171,-48 258,-133 87,-85 170,-191 249,-318l-14 47c-53,90 -125,183 -215,281 -90,97 -185,150 -283,157 -21,0 -40,-2 -56,-7 -17,-5 -30,-10 -41,-17 -23,12 -46,23 -71,33 -25,10 -55,15 -90,17 -54,-1 -94,-19 -121,-54 -26,-35 -39,-83 -39,-145 5,-129 58,-262 158,-400 101,-138 218,-213 354,-225zm-184 733c61,-57 114,-130 159,-221 45,-90 68,-182 71,-275 0,-47 -8,-87 -26,-121 -17,-34 -44,-51 -81,-53 -62,6 -114,54 -157,143 -43,90 -66,183 -67,282 0,50 8,97 25,140 16,43 42,78 77,106zm59 -663l-5 -13c-83,51 -150,129 -202,233 -51,104 -78,205 -79,301 1,59 12,103 36,130 23,28 56,41 99,40l51 -7 3 -3c-32,-29 -55,-62 -68,-99 -13,-37 -19,-81 -19,-132 -1,-78 12,-158 40,-240 27,-82 76,-152 145,-211zm892 -612l-389 1331 27 0c60,-207 130,-388 211,-544 81,-156 170,-237 267,-245 34,1 60,14 80,40 19,25 30,56 30,92 -3,77 -35,135 -95,175 -60,39 -128,65 -205,77 25,115 48,204 71,267 22,63 49,95 81,96 50,-6 113,-51 190,-137 76,-86 150,-181 221,-284l-13 44c-48,72 -118,162 -209,272 -91,110 -170,171 -237,183 -37,-1 -73,-41 -108,-120 -35,-79 -67,-192 -94,-341 7,2 14,3 21,5 7,2 15,2 23,2 71,-1 134,-19 188,-56 54,-37 82,-88 85,-154 1,-24 -5,-46 -17,-66 -12,-20 -32,-30 -62,-32 -76,9 -150,89 -224,239 -74,150 -135,316 -184,497l-155 24c52,-184 100,-347 142,-490 42,-143 78,-266 109,-369 30,-103 54,-186 69,-250 16,-64 24,-108 25,-132 1,-27 -8,-46 -27,-57 -18,-11 -47,-17 -88,-16l10 -25 257 -24z"/>
 </g>
</svg>
